<?xml version="1.0" encoding="UTF-8" standalone="no"?>
<!-- Created with Inkscape (http://www.inkscape.org/) -->

<svg
   xmlns:dc="http://purl.org/dc/elements/1.1/"
   xmlns:cc="http://creativecommons.org/ns#"
   xmlns:rdf="http://www.w3.org/1999/02/22-rdf-syntax-ns#"
   xmlns:svg="http://www.w3.org/2000/svg"
   xmlns="http://www.w3.org/2000/svg"
   xmlns:sodipodi="http://sodipodi.sourceforge.net/DTD/sodipodi-0.dtd"
   xmlns:inkscape="http://www.inkscape.org/namespaces/inkscape"
   width="471.90451mm"
   height="603.09399mm"
   viewBox="0 0 471.90451 603.09399"
   version="1.1"
   id="svg8"
   inkscape:version="0.92.1 r15371"
   sodipodi:docname="logitechlogo1988.svg">
  <defs
     id="defs2" />
  <sodipodi:namedview
     id="base"
     pagecolor="#ffffff"
     bordercolor="#666666"
     borderopacity="1.0"
     inkscape:pageopacity="0.0"
     inkscape:pageshadow="2"
     inkscape:zoom="0.13631141"
     inkscape:cx="828.47452"
     inkscape:cy="1347.9922"
     inkscape:document-units="mm"
     inkscape:current-layer="layer3"
     showgrid="false"
     inkscape:window-width="1366"
     inkscape:window-height="705"
     inkscape:window-x="-8"
     inkscape:window-y="-8"
     inkscape:window-maximized="1" />
  <metadata
     id="metadata5">
    <rdf:RDF>
      <cc:Work
         rdf:about="">
        <dc:format>image/svg+xml</dc:format>
        <dc:type
           rdf:resource="http://purl.org/dc/dcmitype/StillImage" />
        <dc:title></dc:title>
      </cc:Work>
    </rdf:RDF>
  </metadata>
  <g
     inkscape:label="Layer 1"
     inkscape:groupmode="layer"
     id="layer1"
     transform="translate(57.484201,209.05086)" />
  <g
     inkscape:groupmode="layer"
     id="layer3"
     inkscape:label="Layer 2"
     transform="translate(57.484201,209.05086)">
    <g
       id="g3770"
       transform="translate(-378.81256,-5.4900371)">
      <g
         style="clip-rule:evenodd;fill-rule:evenodd"
         transform="matrix(3.4315837,0,0,3.4315837,71.457894,-242.35058)"
         id="g28">
        <path
           inkscape:connector-curvature="0"
           d="M 210.33291,187.05175 V 11.303747 H 72.814912 V 187.05175 Z"
           id="path12" />
        <path
           style="fill:#ffffff"
           inkscape:connector-curvature="0"
           d="M 75.203912,13.693747 V 184.66275 H 207.94391 V 13.693747 Z"
           id="path14" />
        <path
           sodipodi:nodetypes="ccccccccccccccc"
           inkscape:connector-curvature="0"
           d="m 195.73091,72.363747 v -6.902 h -17.787 v 6.902 z m -53.626,29.204003 h -6.903 v 17.787 h 6.903 z m 35.091,-2.731003 -4.881,4.881003 12.578,12.578 4.881,-4.881 z"
           id="path16" />
        <path
           inkscape:connector-curvature="0"
           d="m 106.79591,75.151747 4.115,1.195 12.478,5.575 c 1.593,3.054 7.433,6.239 15.663,3.319 7.3,0.266 8.23,-0.265 10.619,-0.664 l 10.354,-2.522 c 4.514,-2.521 11.416,-8.495 11.416,-11.415 0,-2.921 -2.654,-10.222 -15.133,-15.929 -1.758,-3.086 -6.77,-6.638 -13.539,-3.053 -10.752,0.265 -28.406,5.574 -35.973,23.494 z"
           id="path18" />
        <path
           style="fill:#ffffff"
           inkscape:connector-curvature="0"
           d="m 131.75091,58.559747 c -3.186,0.929 -8.628,2.389 -17.92,13.407 l 9.026,3.717 c 0.532,-5.443 7.036,-14.337 8.894,-17.124 z m -3.484,15.265 c 0.531,1.991 2.224,4.413 4.082,6.006 -2.257,0.133 -5.044,-0.066 -5.442,-1.394 -0.399,-1.327 -10e-4,-3.749 1.36,-4.612 z m 18.882,-17.389 c -4.248,-0.398 -8.496,1.195 -12.61,8.628 -4.115,7.433 0.266,12.212 1.858,12.743 1.593,0.531 8.098,0.664 12.344,-7.035 4.248,-7.699 3.586,-14.203 -1.592,-14.336 z m 9.69,3.584 c 0.266,2.124 0.266,3.849 0.398,5.31 0.133,1.46 0.133,2.787 -1.328,4.513 -1.459,1.726 -5.84,7.168 -8.627,9.69 l 10.619,-1.991 c 4.912,-2.788 8.496,-6.77 8.496,-8.363 0,-1.593 -4.513,-7.168 -9.558,-9.159 z"
           id="path20" />
        <path
           inkscape:connector-curvature="0"
           d="m 139.58291,135.41675 h 13.009 v 3.848 h -4.38 v 33.849 h -4.248 v -33.849 h -4.381 z m 16.195,0 h 8.229 v 3.848 h -3.983 v 12.213 l 3.318,-3.451 v 5.574 l -3.318,3.318 v 12.346 h 3.983 v 3.849 h -8.229 z m -23.496,0 v 12.344 l 4.248,-4.381 v -7.963 z m 0,17.785 4.248,-4.246 v 24.158 h -4.248 z m 54.689,-17.785 v 37.697 h 4.248 v -20.839 h 4.379 v 20.839 h 4.248 v -37.697 h -4.248 v 13.008 h -4.379 v -13.008 z m -80.067,5.442 a 6.148,6.148 0 1 0 -12.294998,0 v 27.078 a 6.1475,6.1475 0 1 0 12.294998,0 z"
           id="path22" />
        <path
           style="fill:#ffffff"
           inkscape:connector-curvature="0"
           d="m 102.68091,167.93675 a 1.926,1.926 0 0 1 -1.925,1.926 1.926,1.926 0 0 1 -1.923998,-1.926 v -27.078 a 1.9245,1.9245 0 0 1 3.848998,0 z"
           id="path24" />
        <path
           inkscape:connector-curvature="0"
           d="m 181.37191,167.93675 a 6.149,6.149 0 0 1 -12.296,0 v -27.078 a 6.15,6.15 0 0 1 12.296,0 l 0.023,5.84 h -4.248 v -5.84 a 1.924,1.924 0 0 0 -3.848,0 v 27.078 a 1.925,1.925 0 0 0 3.848,0 v -12.078 h 4.248 z m -55.893,-12.078 0.009,12.078 a 6.148,6.148 0 1 1 -12.296,0 v -27.078 a 6.148,6.148 0 1 1 12.296,0 l -0.009,5.84 h -4.215 v -5.84 a 1.925,1.925 0 0 0 -3.848,0 v 27.078 a 1.925,1.925 0 0 0 3.848,0 v -13.008 l 5.974,-5.973 v 5.441 z m -42.708998,-20.442 h 4.248 v 33.848 h 4.248 v 3.849 h -8.496 z"
           id="path26" />
      </g>
      <path
         transform="scale(0.26458333)"
         inkscape:connector-curvature="0"
         id="path3746"
         d="m 1359.1766,641.03491 c 1.6142,-13.78545 9.8901,-108.01353 18.3909,-209.3957 14.951,-178.30657 15.4556,-194.58309 15.4391,-497.993922 l -0.017,-313.662668 -23.253,-116.71732 c -12.7891,-64.19453 -23.286,-120.80243 -23.3264,-125.79534 -0.069,-8.57338 23.8538,-9.07801 430.3631,-9.07801 h 430.4366 l 20.8704,26.403 c 11.4787,14.52165 20.8704,28.15168 20.8704,30.28896 0,2.13728 -42.2718,16.19122 -93.9373,31.23098 -90.1021,26.22859 -101.0339,30.95111 -267.752,115.66805 l -173.8145,88.32301 -12.0593,27.26806 c -6.6325,14.99743 -40.3492,96.53034 -74.9259,181.18425 l -62.8667,153.916202 71.9223,153.993468 71.9223,153.99352 104.7576,41.04025 c 57.6166,22.57219 104.7575,43.00971 104.7575,45.41678 0,2.40703 -24.5554,41.22866 -54.5675,86.27024 l -54.5676,81.8938 -97.165,11.79862 c -76.3534,9.27151 -291.1584,50.53782 -345.0999,66.29736 -8.314,2.42902 -8.9982,0.0311 -6.3781,-22.34359 z"
         style="opacity:0.98000004;fill:#00a290;fill-opacity:1;fill-rule:evenodd;stroke:#00a290;stroke-width:0.0377953;stroke-linecap:square;stroke-linejoin:round;stroke-miterlimit:4;stroke-dasharray:none;stroke-dashoffset:0;stroke-opacity:1;paint-order:fill markers stroke" />
      <path
         transform="scale(0.26458333)"
         inkscape:connector-curvature="0"
         id="path3748"
         d="m 2470.7929,-325.16991 -31.4453,-31.44525 81.3217,-81.32939 c 44.727,-44.73117 81.0551,-81.57877 80.7293,-81.88356 -0.3259,-0.3048 -32.398,-16.7468 -71.2713,-36.53778 -38.8734,-19.79099 -71.0954,-36.35125 -71.6046,-36.80058 -0.5092,-0.44934 73.4632,-11.84563 164.3831,-25.3251 90.9199,-13.47947 165.4976,-24.26774 165.7283,-23.97395 0.3766,0.47947 -47.2147,322.37972 -48.5876,328.63954 -0.3736,1.7037 -11.6478,-19.21192 -32.8551,-60.95238 -17.7575,-34.95036 -34.4005,-67.45539 -36.9847,-72.23342 l -4.6984,-8.68731 -80.9794,80.9872 c -44.5387,44.54298 -81.2745,80.98723 -81.6351,80.98723 -0.3606,0 -14.806,-14.15037 -32.1009,-31.44525 z"
         style="opacity:0.98000004;fill:#e43240;fill-opacity:1;fill-rule:evenodd;stroke:#e43240;stroke-width:0.03779528;stroke-linecap:square;stroke-linejoin:round;stroke-miterlimit:4;stroke-dasharray:none;stroke-dashoffset:0;stroke-opacity:1;paint-order:fill markers stroke" />
    </g>
  </g>
</svg>
